<svg xmlns="http://www.w3.org/2000/svg" viewBox="0 0 189.55 188.95"><defs><style>.cls-1{fill:#dfefdc;}</style></defs><title>資產 2</title><g id="圖層_2" data-name="圖層 2"><g id="圖層_1-2" data-name="圖層 1"><path class="cls-1" d="M95.25,8.47h0l-.06-.05A28.74,28.74,0,0,0,54.55,49.06l.06,0h0L95.46,94.4l40.43-45.29A28.74,28.74,0,0,0,95.25,8.47Z"/><path class="cls-1" d="M94.54,180.48h0l-.05.05a28.74,28.74,0,0,1-40.64-40.64l0,0h0L95.46,94.4l39.72,45.44a28.74,28.74,0,1,1-40.64,40.64Z"/><path class="cls-1" d="M181.07,94.35h0l.06,0a28.74,28.74,0,1,0-40.64-40.64l-.05.05h0l-45,40.69,45,40.59c11.23,11.23,31.31,9.34,40.64,0A28.72,28.72,0,0,0,181.07,94.35Z"/><path class="cls-1" d="M8.47,95.06h0s0,0-.05,0A28.74,28.74,0,0,1,49.06,54.36l0,.06h0l46.35,40L49.11,135.7A28.74,28.74,0,0,1,8.47,95.06Z"/></g></g></svg>