<?xml version="1.0" encoding="UTF-8"?>
<!DOCTYPE svg PUBLIC "-//W3C//DTD SVG 1.1//EN" "http://www.w3.org/Graphics/SVG/1.1/DTD/svg11.dtd">
<!-- Creator: CorelDRAW X7 -->
<svg xmlns="http://www.w3.org/2000/svg" xml:space="preserve" width="63.5mm" height="112.945mm" version="1.1" shape-rendering="geometricPrecision" text-rendering="geometricPrecision" image-rendering="optimizeQuality" fill-rule="evenodd" clip-rule="evenodd"
viewBox="0 0 2460 4376"
 xmlns:xlink="http://www.w3.org/1999/xlink">
 <g id="圖層_x0020_1">
  <metadata id="CorelCorpID_0Corel-Layer"/>
  <rect fill="#FEFEFE" width="2460" height="4376"/>
  <rect fill="#EEEEEF" width="2460" height="213"/>
  <path fill="#F08519" fill-rule="nonzero" d="M144 151c0,3 -1,4 -4,4 -3,0 -4,-1 -4,-4l0 -38 -48 0 0 38c0,3 -2,4 -4,4 -3,0 -5,-1 -5,-4l0 -81c0,-3 2,-4 5,-4 2,0 4,1 4,4l0 34 48 0 0 -34c0,-3 1,-4 4,-4 3,0 4,1 4,4l0 81z"/>
  <path id="1" fill="#F08519" fill-rule="nonzero" d="M215 151c0,3 -2,4 -4,4 -3,0 -5,-1 -5,-4l0 -5c-4,6 -10,9 -18,9 -7,0 -13,-2 -17,-6 -5,-5 -7,-12 -7,-21l0 -40c0,-3 2,-5 4,-5 3,0 5,2 5,5l0 40c0,13 5,19 15,19 5,0 9,-2 13,-5 3,-4 5,-9 5,-16l0 -38c0,-3 2,-5 4,-5 3,0 5,2 5,5l0 63z"/>
  <path id="2" fill="#F08519" fill-rule="nonzero" d="M284 151c0,3 -1,4 -4,4 -3,0 -4,-1 -4,-4l0 -40c0,-13 -5,-19 -16,-19 -5,0 -10,2 -14,7 -3,5 -5,9 -5,14l0 38c0,3 -2,4 -4,4 -3,0 -5,-1 -5,-4l0 -63c0,-3 2,-4 5,-4 2,0 4,1 4,4l0 7c4,-8 10,-12 19,-12 8,0 15,3 19,8 3,5 5,12 5,20l0 40z"/>
  <path id="3" fill="#F08519" fill-rule="nonzero" d="M582 151c0,3 -1,4 -4,4 -3,0 -4,-1 -4,-4l0 -38 -48 0 0 38c0,3 -2,4 -4,4 -3,0 -5,-1 -5,-4l0 -81c0,-3 2,-4 5,-4 2,0 4,1 4,4l0 34 48 0 0 -34c0,-3 1,-4 4,-4 3,0 4,1 4,4l0 81z"/>
  <path id="4" fill="#F08519" fill-rule="nonzero" d="M653 151c0,3 -2,4 -4,4 -3,0 -5,-1 -5,-4l0 -5c-4,6 -10,9 -18,9 -7,0 -13,-2 -17,-6 -5,-5 -7,-12 -7,-21l0 -40c0,-3 2,-5 4,-5 3,0 5,2 5,5l0 40c0,13 5,19 15,19 5,0 9,-2 13,-5 3,-4 5,-9 5,-16l0 -38c0,-3 2,-5 4,-5 3,0 5,2 5,5l0 63z"/>
  <path id="5" fill="#F08519" fill-rule="nonzero" d="M722 151c0,3 -1,4 -4,4 -3,0 -4,-1 -4,-4l0 -40c0,-13 -5,-19 -16,-19 -5,0 -10,2 -14,7 -3,5 -5,9 -5,14l0 38c0,3 -2,4 -4,4 -3,0 -5,-1 -5,-4l0 -63c0,-3 2,-4 5,-4 2,0 4,1 4,4l0 7c4,-8 10,-12 19,-12 8,0 15,3 19,8 3,5 5,12 5,20l0 40z"/>
  <path id="6" fill="#234F2D" fill-rule="nonzero" d="M353 144c0,8 -2,14 -6,19 -5,6 -11,8 -19,8 -8,0 -15,-2 -21,-6 -2,-2 -4,-4 -4,-6 0,-1 1,-2 1,-3 1,-1 2,-1 3,-1 2,0 3,1 4,2 4,4 10,6 17,6 5,0 9,-2 13,-5 2,-4 4,-8 4,-14l0 -6c-2,3 -5,6 -8,8 -3,2 -7,3 -11,3 -7,0 -13,-3 -18,-9 -5,-6 -7,-14 -7,-24 0,-10 2,-18 7,-24 5,-6 11,-8 19,-8 3,0 7,1 10,3 3,2 6,4 8,7l0 -6c0,-3 1,-4 4,-4 3,0 4,1 4,4l0 56zm-8 -26c0,-8 -2,-15 -5,-19 -4,-5 -8,-7 -13,-7 -5,0 -9,2 -12,6 -4,4 -6,10 -6,18 0,8 2,15 6,19 3,4 7,5 11,5 5,0 9,-1 13,-5 4,-4 6,-10 6,-17z"/>
  <path id="7" fill="#234F2D" fill-rule="nonzero" d="M406 88c0,2 -1,4 -4,4 -6,0 -11,3 -16,8 -4,6 -7,12 -7,19l0 32c0,3 -1,4 -4,4 -3,0 -4,-1 -4,-4l0 -63c0,-3 1,-5 4,-5 3,0 4,2 4,5l0 9c7,-9 15,-14 23,-14 3,0 4,2 4,5z"/>
  <path id="8" fill="#234F2D" fill-rule="nonzero" d="M469 88c0,0 0,1 0,1l-24 68c-1,5 -3,8 -6,10 -3,3 -6,4 -11,4l-8 0c-3,0 -4,-1 -4,-4 0,-3 1,-4 4,-4l8 0c2,0 4,-1 5,-2 2,-1 3,-3 4,-7l3 -8 -21 -57c0,0 0,-1 0,-1 0,-1 1,-2 2,-3 0,-1 1,-1 3,-1 1,0 3,0 4,2l16 47 17 -47c1,-1 2,-2 4,-2 1,0 2,0 3,1 1,1 1,2 1,3z"/>
  <path id="9" fill="#234F2D" fill-rule="nonzero" d="M778 151c0,3 -2,4 -5,4l-4 0c-12,0 -18,-6 -18,-17l0 -40 -10 0c-3,0 -4,-1 -4,-4 0,-3 1,-5 4,-5l10 0 0 -19c0,-3 1,-4 4,-4 3,0 4,1 4,4l0 19 12 0c3,0 4,2 4,5 0,3 -1,4 -4,4l-12 0 0 40c0,3 1,5 2,7 2,1 4,2 8,2l4 0c3,0 5,1 5,4z"/>
  <path id="10" fill="#234F2D" fill-rule="nonzero" d="M851 135c0,0 -1,2 -2,4 -6,11 -15,16 -27,16 -9,0 -17,-3 -22,-9 -6,-7 -8,-16 -8,-26 0,-11 2,-19 8,-26 5,-7 13,-11 22,-11 9,0 16,4 21,10 5,6 7,12 7,19 0,6 -3,9 -9,9l-41 0c0,8 3,15 7,19 4,5 9,7 15,7 9,0 16,-5 21,-14 1,-2 2,-3 4,-3 1,0 2,1 3,2 1,0 1,1 1,3zm-9 -24c0,-4 -2,-9 -5,-12 -4,-5 -9,-7 -15,-7 -6,0 -11,2 -15,6 -3,4 -5,9 -6,15l37 0c3,0 4,-1 4,-2z"/>
  <path id="11" fill="#234F2D" fill-rule="nonzero" d="M903 88c0,2 -2,4 -5,4 -5,0 -10,3 -15,8 -5,6 -7,12 -7,19l0 32c0,3 -1,4 -4,4 -3,0 -5,-1 -5,-4l0 -63c0,-3 2,-5 5,-5 3,0 4,2 4,5l0 9c7,-9 14,-14 22,-14 3,0 5,2 5,5z"/>
  <path id="12" fill="none" fill-rule="nonzero" stroke="#F08519" stroke-width="2.95214" d="M144 151c0,3 -1,4 -4,4 -3,0 -4,-1 -4,-4l0 -38 -48 0 0 38c0,3 -2,4 -4,4 -3,0 -5,-1 -5,-4l0 -81c0,-3 2,-4 5,-4 2,0 4,1 4,4l0 34 48 0 0 -34c0,-3 1,-4 4,-4 3,0 4,1 4,4l0 81z"/>
  <path id="13" fill="none" fill-rule="nonzero" stroke="#F08519" stroke-width="2.95214" d="M215 151c0,3 -2,4 -4,4 -3,0 -5,-1 -5,-4l0 -5c-4,6 -10,9 -18,9 -7,0 -13,-2 -17,-6 -5,-5 -7,-12 -7,-21l0 -40c0,-3 2,-5 4,-5 3,0 5,2 5,5l0 40c0,13 5,19 15,19 5,0 9,-2 13,-5 3,-4 5,-9 5,-16l0 -38c0,-3 2,-5 4,-5 3,0 5,2 5,5l0 63z"/>
  <path id="14" fill="none" fill-rule="nonzero" stroke="#F08519" stroke-width="2.95214" d="M284 151c0,3 -1,4 -4,4 -3,0 -4,-1 -4,-4l0 -40c0,-13 -5,-19 -16,-19 -5,0 -10,2 -14,7 -3,5 -5,9 -5,14l0 38c0,3 -2,4 -4,4 -3,0 -5,-1 -5,-4l0 -63c0,-3 2,-4 5,-4 2,0 4,1 4,4l0 7c4,-8 10,-12 19,-12 8,0 15,3 19,8 3,5 5,12 5,20l0 40z"/>
  <path id="15" fill="none" fill-rule="nonzero" stroke="#F08519" stroke-width="2.95214" d="M582 151c0,3 -1,4 -4,4 -3,0 -4,-1 -4,-4l0 -38 -48 0 0 38c0,3 -2,4 -4,4 -3,0 -5,-1 -5,-4l0 -81c0,-3 2,-4 5,-4 2,0 4,1 4,4l0 34 48 0 0 -34c0,-3 1,-4 4,-4 3,0 4,1 4,4l0 81z"/>
  <path id="16" fill="none" fill-rule="nonzero" stroke="#F08519" stroke-width="2.95214" d="M653 151c0,3 -2,4 -4,4 -3,0 -5,-1 -5,-4l0 -5c-4,6 -10,9 -18,9 -7,0 -13,-2 -17,-6 -5,-5 -7,-12 -7,-21l0 -40c0,-3 2,-5 4,-5 3,0 5,2 5,5l0 40c0,13 5,19 15,19 5,0 9,-2 13,-5 3,-4 5,-9 5,-16l0 -38c0,-3 2,-5 4,-5 3,0 5,2 5,5l0 63z"/>
  <path id="17" fill="none" fill-rule="nonzero" stroke="#F08519" stroke-width="2.95214" d="M722 151c0,3 -1,4 -4,4 -3,0 -4,-1 -4,-4l0 -40c0,-13 -5,-19 -16,-19 -5,0 -10,2 -14,7 -3,5 -5,9 -5,14l0 38c0,3 -2,4 -4,4 -3,0 -5,-1 -5,-4l0 -63c0,-3 2,-4 5,-4 2,0 4,1 4,4l0 7c4,-8 10,-12 19,-12 8,0 15,3 19,8 3,5 5,12 5,20l0 40z"/>
  <path id="18" fill="none" fill-rule="nonzero" stroke="#234F2D" stroke-width="2.95214" d="M353 144c0,8 -2,14 -6,19 -5,6 -11,8 -19,8 -8,0 -15,-2 -21,-6 -2,-2 -4,-4 -4,-6 0,-1 1,-2 1,-3 1,-1 2,-1 3,-1 2,0 3,1 4,2 4,4 10,6 17,6 5,0 9,-2 13,-5 2,-4 4,-8 4,-14l0 -6c-2,3 -5,6 -8,8 -3,2 -7,3 -11,3 -7,0 -13,-3 -18,-9 -5,-6 -7,-14 -7,-24 0,-10 2,-18 7,-24 5,-6 11,-8 19,-8 3,0 7,1 10,3 3,2 6,4 8,7l0 -6c0,-3 1,-4 4,-4 3,0 4,1 4,4l0 56zm-8 -26c0,-8 -2,-15 -5,-19 -4,-5 -8,-7 -13,-7 -5,0 -9,2 -12,6 -4,4 -6,10 -6,18 0,8 2,15 6,19 3,4 7,5 11,5 5,0 9,-1 13,-5 4,-4 6,-10 6,-17z"/>
  <path id="19" fill="none" fill-rule="nonzero" stroke="#234F2D" stroke-width="2.95214" d="M406 88c0,2 -1,4 -4,4 -6,0 -11,3 -16,8 -4,6 -7,12 -7,19l0 32c0,3 -1,4 -4,4 -3,0 -4,-1 -4,-4l0 -63c0,-3 1,-5 4,-5 3,0 4,2 4,5l0 9c7,-9 15,-14 23,-14 3,0 4,2 4,5z"/>
  <path id="20" fill="none" fill-rule="nonzero" stroke="#234F2D" stroke-width="2.95214" d="M469 88c0,0 0,1 0,1l-24 68c-1,5 -3,8 -6,10 -3,3 -6,4 -11,4l-8 0c-3,0 -4,-1 -4,-4 0,-3 1,-4 4,-4l8 0c2,0 4,-1 5,-2 2,-1 3,-3 4,-7l3 -8 -21 -57c0,0 0,-1 0,-1 0,-1 1,-2 2,-3 0,-1 1,-1 3,-1 1,0 3,0 4,2l16 47 17 -47c1,-1 2,-2 4,-2 1,0 2,0 3,1 1,1 1,2 1,3z"/>
  <path id="21" fill="none" fill-rule="nonzero" stroke="#234F2D" stroke-width="2.95214" d="M778 151c0,3 -2,4 -5,4l-4 0c-12,0 -18,-6 -18,-17l0 -40 -10 0c-3,0 -4,-1 -4,-4 0,-3 1,-5 4,-5l10 0 0 -19c0,-3 1,-4 4,-4 3,0 4,1 4,4l0 19 12 0c3,0 4,2 4,5 0,3 -1,4 -4,4l-12 0 0 40c0,3 1,5 2,7 2,1 4,2 8,2l4 0c3,0 5,1 5,4z"/>
  <path id="22" fill="none" fill-rule="nonzero" stroke="#234F2D" stroke-width="2.95214" d="M851 135c0,0 -1,2 -2,4 -6,11 -15,16 -27,16 -9,0 -17,-3 -22,-9 -6,-7 -8,-16 -8,-26 0,-11 2,-19 8,-26 5,-7 13,-11 22,-11 9,0 16,4 21,10 5,6 7,12 7,19 0,6 -3,9 -9,9l-41 0c0,8 3,15 7,19 4,5 9,7 15,7 9,0 16,-5 21,-14 1,-2 2,-3 4,-3 1,0 2,1 3,2 1,0 1,1 1,3zm-9 -24c0,-4 -2,-9 -5,-12 -4,-5 -9,-7 -15,-7 -6,0 -11,2 -15,6 -3,4 -5,9 -6,15l37 0c3,0 4,-1 4,-2z"/>
  <path id="23" fill="none" fill-rule="nonzero" stroke="#234F2D" stroke-width="2.95214" d="M903 88c0,2 -2,4 -5,4 -5,0 -10,3 -15,8 -5,6 -7,12 -7,19l0 32c0,3 -1,4 -4,4 -3,0 -5,-1 -5,-4l0 -63c0,-3 2,-5 5,-5 3,0 4,2 4,5l0 9c7,-9 14,-14 22,-14 3,0 5,2 5,5z"/>
  <rect fill="#234F2D" y="4039" width="2460" height="337"/>
 </g>
</svg>
