<svg width="96" height="96" xmlns="http://www.w3.org/2000/svg" xmlns:xlink="http://www.w3.org/1999/xlink" xml:space="preserve" overflow="hidden"><defs><clipPath id="clip0"><rect x="592" y="312" width="96" height="96"/></clipPath></defs><g clip-path="url(#clip0)" transform="translate(-592 -312)"><path d="M650.2 338 644.2 344 621.7 344 615.7 338 650.2 338ZM655.8 338 664.3 338 658.3 344 649.8 344 655.8 338ZM640 354C638.3 354 637 352.7 637 351 637 349.3 638.3 348 640 348 641.7 348 643 349.3 643 351 643 352.7 641.7 354 640 354ZM673.1 334.9C673.4 334.6 673.2 334 672.7 334L659.7 334 664.3 329.4C665.1 328.6 665.1 327.4 664.3 326.6 663.5 325.8 662.3 325.8 661.5 326.6L654.2 334 607.2 334C606.8 334 606.5 334.5 606.8 334.9L638 366 638 386C638 387 636.7 387.8 635.1 388.3 633.6 388.5 632.2 388.7 631.1 389L631 389C629.1 389.5 628 390.2 628 391 628 392.7 633.4 394 640 394 646.6 394 652 392.7 652 391 652 390.2 650.8 389.5 649 389 647.8 388.7 646.5 388.4 644.9 388.3 643.3 387.8 642 387 642 386L642 366 673.1 334.9Z" fill="#4C7055"/></g></svg>