<?xml version="1.0" encoding="UTF-8"?>
<!DOCTYPE svg PUBLIC "-//W3C//DTD SVG 1.1//EN" "http://www.w3.org/Graphics/SVG/1.1/DTD/svg11.dtd">
<!-- Creator: CorelDRAW X7 -->
<svg xmlns="http://www.w3.org/2000/svg" xml:space="preserve" width="7.6531mm" height="4.8146mm" version="1.1" shape-rendering="geometricPrecision" text-rendering="geometricPrecision" image-rendering="optimizeQuality" fill-rule="evenodd" clip-rule="evenodd"
viewBox="0 0 18 11"
 xmlns:xlink="http://www.w3.org/1999/xlink">
 <g id="圖層_x0020_1">
  <metadata id="CorelCorpID_0Corel-Layer"/>
  <polygon fill="none" stroke="#234F2D" stroke-width="1.18009" points="5,1 17,1 17,4 13,7 1,7 1,4 "/>
  <line fill="none" stroke="#234F2D" stroke-width="1.18009" x1="13" y1="7" x2="13" y2= "4" />
  <polyline fill="none" stroke="#234F2D" stroke-width="1.18009" points="1,4 13,4 17,1 "/>
  <polyline fill="none" stroke="#234F2D" stroke-width="1.18009" points="17,4 17,4 17,7 13,11 1,11 1,8 1,7 "/>
  <line fill="none" stroke="#234F2D" stroke-width="1.18009" x1="13" y1="11" x2="13" y2= "8" />
  <polyline fill="none" stroke="#234F2D" stroke-width="1.18009" points="1,8 13,8 17,4 "/>
  <polygon fill="#FEFEFE" stroke="#234F2D" stroke-width="0.472038" points="9,1 12,1 9,4 9,11 5,11 5,4 "/>
 </g>
</svg>
