<svg width="96" height="96" xmlns="http://www.w3.org/2000/svg" xmlns:xlink="http://www.w3.org/1999/xlink" xml:space="preserve" overflow="hidden"><defs><clipPath id="clip0"><rect x="259" y="249" width="96" height="96"/></clipPath></defs><g clip-path="url(#clip0)" transform="translate(-259 -249)"><path d="M347.342 256.138 346.659 254.006C346.491 253.48 345.928 253.19 345.402 253.358 345.385 253.363 345.367 253.369 345.35 253.376L309.8 266.938 309.8 270.382 346.721 257.387C347.232 257.208 347.508 256.654 347.342 256.138Z" fill="#385723"/><path d="M276.053 281.911 291.8 279.243 291.8 273.805 283 277.163C282.489 277.361 282.235 277.936 282.433 278.448 282.435 278.453 282.437 278.458 282.439 278.463L275.688 279.825C275.197 279.924 274.856 280.371 274.888 280.87L274.896 280.987C274.931 281.538 275.406 281.957 275.957 281.922 275.989 281.92 276.021 281.916 276.053 281.911Z" fill="#385723"/><path d="M347.857 266.37C347.794 265.821 347.299 265.427 346.75 265.49 346.722 265.493 346.693 265.497 346.665 265.503L309.8 272.943 309.8 276.193 347.3 269.839C347.824 269.75 348.188 269.267 348.127 268.739Z" fill="#385723"/><path d="M339.944 303.09C340.018 302.34 339.203 301.89 338.501 301.59 337.524 301.195 336.502 300.923 335.458 300.778 335.769 301.205 336.055 301.648 336.317 302.107L336.278 302.123C336.167 302.161 336.033 302.193 335.922 302.231L334.736 302.592C334.459 302.677 334.165 302.758 333.878 302.84 332.065 299.951 329.151 297.928 325.81 297.24 326.588 298.091 327.272 299.023 327.85 300.02 329.435 300.796 330.799 301.958 331.816 303.4 330.464 303.736 329.016 304.049 327.499 304.337 325.496 296.892 317.837 292.479 310.392 294.482 308.227 295.065 306.233 296.16 304.581 297.676 305.162 298.035 305.721 298.427 306.256 298.851 311.299 294.568 318.86 295.185 323.142 300.228 324.246 301.529 325.06 303.05 325.529 304.69 324.554 304.854 323.558 305.011 322.529 305.155 320.97 300.45 315.892 297.9 311.186 299.459 310.191 299.788 309.261 300.29 308.439 300.941 308.881 301.44 309.294 301.964 309.675 302.511 312.689 300.12 317.071 300.626 319.461 303.64 319.889 304.18 320.235 304.78 320.487 305.421 319.446 305.548 318.374 305.661 317.287 305.767 316.074 303.947 313.616 303.455 311.796 304.667 311.579 304.812 311.376 304.978 311.192 305.162 311.349 305.503 311.492 305.851 311.625 306.203 310.924 306.243 310.217 306.279 309.503 306.311 308.306 303.547 306.324 301.195 303.803 299.546L303.803 302.01C305.268 303.205 306.461 304.698 307.303 306.391 305.503 306.445 303.67 306.469 301.803 306.464L301.803 306.464 301.803 269.99 299.803 270.753 299.803 306.442C298.448 306.422 297.115 306.386 295.803 306.334L295.803 272.279 293.803 273.042 293.803 306.242C293.172 306.209 292.549 306.173 291.93 306.134L291.8 306 291.8 305.117C288.577 301.367 282.925 300.94 279.176 304.163 279.005 304.31 278.84 304.463 278.681 304.622 277.52 304.422 276.401 304.205 275.326 303.97 279.121 298.685 286.451 297.417 291.8 301.12L291.8 298.77C285.333 295.158 277.171 297.224 273.2 303.477 272.377 303.277 271.576 303.063 270.816 302.841L270.87 302.761C271.356 302.053 271.89 301.379 272.47 300.745 271.947 300.68 271.419 300.647 270.892 300.645 269.409 300.644 267.938 300.904 266.545 301.413 265.445 301.793 264.779 302.475 264.831 302.978 265.396 306.276 266.292 309.509 267.505 312.628 268.569 315.389 269.845 318.064 271.322 320.628 275.96 328.668 282.272 335.615 289.832 341L314.963 341C325.588 333.609 337.025 319.752 339.906 303.333ZM285 304C286.82 304.002 288.567 304.717 289.866 305.991 286.857 305.757 284.003 305.44 281.338 305.048 282.437 304.363 283.705 304 285 304ZM337.462 305.333C334.016 320.411 323.509 332.448 314.329 339L290.466 339C283.387 333.82 277.462 327.225 273.066 319.635 271.642 317.16 270.41 314.578 269.382 311.914 268.366 309.294 267.579 306.59 267.029 303.834 267.028 303.829 267.03 303.824 267.035 303.823 267.037 303.822 267.039 303.822 267.041 303.823L270.022 304.692C278.234 307.092 290.022 308.462 302.366 308.462 315.066 308.462 327.081 307.021 335.323 304.507L336.576 304.125 337.74 303.75C337.745 303.748 337.751 303.751 337.753 303.756 337.753 303.758 337.753 303.759 337.753 303.761Z" fill="#385723"/><path d="M306.849 285C307.393 284.952 307.807 284.491 307.796 283.945L307.796 267.7 305.796 268.462 305.796 284C305.795 284.552 306.242 285.001 306.795 285.001 306.813 285.001 306.831 285.001 306.849 285Z" fill="#385723"/></g></svg>