<?xml version="1.0" encoding="UTF-8"?>
<!DOCTYPE svg PUBLIC "-//W3C//DTD SVG 1.1//EN" "http://www.w3.org/Graphics/SVG/1.1/DTD/svg11.dtd">
<!-- Creator: CorelDRAW X7 -->
<svg xmlns="http://www.w3.org/2000/svg" xml:space="preserve" width="63.5mm" height="5.4861mm" version="1.1" style="shape-rendering:geometricPrecision; text-rendering:geometricPrecision; image-rendering:optimizeQuality; fill-rule:evenodd; clip-rule:evenodd"
viewBox="0 0 2081 180"
 xmlns:xlink="http://www.w3.org/1999/xlink">
 <defs>
  <style type="text/css">
   <![CDATA[
    .str0 {stroke:#F08519;stroke-width:2.49688}
    .str1 {stroke:#234F2D;stroke-width:2.49688}
    .fil3 {fill:none;fill-rule:nonzero}
    .fil0 {fill:#EEEEEF}
    .fil1 {fill:#F08519;fill-rule:nonzero}
    .fil2 {fill:#234F2D;fill-rule:nonzero}
   ]]>
  </style>
 </defs>
 <g id="圖層_x0020_1">
  <metadata id="CorelCorpID_0Corel-Layer"/>
  <rect class="fil0" width="2081" height="180"/>
  <path class="fil1" d="M122 128c0,2 -1,3 -3,3 -3,0 -4,-1 -4,-3l0 -33 -41 0 0 33c0,2 -1,3 -3,3 -3,0 -4,-1 -4,-3l0 -69c0,-2 1,-4 4,-4 2,0 3,2 3,4l0 29 41 0 0 -29c0,-2 1,-4 4,-4 2,0 3,2 3,4l0 69z"/>
  <path id="1" class="fil1" d="M182 128c0,2 -2,3 -4,3 -2,0 -3,-1 -3,-3l0 -5c-4,6 -9,8 -16,8 -6,0 -11,-1 -14,-5 -4,-4 -6,-10 -6,-18l0 -34c0,-2 1,-3 3,-3 3,0 4,1 4,3l0 34c0,11 5,16 13,16 4,0 8,-1 11,-4 3,-3 5,-8 5,-14l0 -32c0,-2 1,-3 3,-3 2,0 4,1 4,3l0 54z"/>
  <path id="2" class="fil1" d="M240 128c0,2 -1,3 -3,3 -2,0 -4,-1 -4,-3l0 -34c0,-11 -4,-16 -13,-16 -5,0 -9,2 -12,6 -3,4 -4,8 -4,11l0 33c0,2 -1,3 -4,3 -2,0 -4,-1 -4,-3l0 -54c0,-2 2,-3 4,-3 3,0 4,1 4,3l0 6c3,-6 9,-9 16,-9 7,0 12,2 16,6 3,4 4,10 4,17l0 34z"/>
  <path id="3" class="fil1" d="M493 128c0,2 -2,3 -4,3 -2,0 -4,-1 -4,-3l0 -33 -40 0 0 33c0,2 -1,3 -4,3 -2,0 -4,-1 -4,-3l0 -69c0,-2 2,-4 4,-4 3,0 4,2 4,4l0 29 40 0 0 -29c0,-2 2,-4 4,-4 2,0 4,2 4,4l0 69z"/>
  <path id="4" class="fil1" d="M552 128c0,2 -1,3 -3,3 -3,0 -4,-1 -4,-3l0 -5c-4,6 -9,8 -15,8 -7,0 -11,-1 -15,-5 -4,-4 -6,-10 -6,-18l0 -34c0,-2 2,-3 4,-3 2,0 4,1 4,3l0 34c0,11 4,16 13,16 4,0 7,-1 10,-4 3,-3 5,-8 5,-14l0 -32c0,-2 1,-3 3,-3 3,0 4,1 4,3l0 54z"/>
  <path id="5" class="fil1" d="M611 128c0,2 -1,3 -3,3 -3,0 -4,-1 -4,-3l0 -34c0,-11 -5,-16 -14,-16 -4,0 -8,2 -11,6 -3,4 -5,8 -5,11l0 33c0,2 -1,3 -3,3 -3,0 -4,-1 -4,-3l0 -54c0,-2 1,-3 4,-3 2,0 3,1 3,3l0 6c4,-6 9,-9 16,-9 7,0 13,2 16,6 3,4 5,10 5,17l0 34z"/>
  <path id="6" class="fil2" d="M299 122c0,7 -2,12 -6,16 -3,5 -9,7 -16,7 -7,0 -12,-2 -17,-5 -2,-2 -4,-4 -4,-6 0,-1 1,-1 1,-2 1,-1 2,-1 3,-1 1,0 2,1 3,1 4,4 8,6 14,6 5,0 8,-2 11,-5 2,-2 4,-6 4,-11l0 -5c-2,3 -4,5 -7,6 -3,2 -6,3 -9,3 -6,0 -11,-2 -15,-7 -5,-5 -7,-12 -7,-21 0,-8 2,-15 6,-20 4,-5 10,-7 16,-7 3,0 6,1 9,2 3,2 5,4 7,7l0 -6c0,-2 1,-3 3,-3 3,0 4,1 4,3l0 48zm-7 -22c0,-7 -2,-13 -5,-17 -3,-3 -6,-5 -11,-5 -4,0 -7,1 -10,5 -3,3 -5,8 -5,15 0,7 2,12 5,16 3,3 6,5 10,5 4,0 7,-2 11,-5 3,-4 5,-8 5,-14z"/>
  <path id="7" class="fil2" d="M343 74c0,2 -1,4 -3,4 -5,0 -9,2 -13,7 -4,4 -6,10 -6,16l0 27c0,2 -1,3 -4,3 -2,0 -3,-1 -3,-3l0 -54c0,-2 1,-3 3,-3 3,0 4,1 4,3l0 8c6,-8 12,-11 19,-11 2,0 3,1 3,3z"/>
  <path id="8" class="fil2" d="M397 74c0,1 0,1 0,1l-20 58c-2,4 -4,7 -6,9 -2,2 -5,3 -9,3l-7 0c-2,0 -3,-1 -3,-4 0,-2 1,-3 3,-3l7 0c2,0 4,-1 5,-2 1,-1 2,-3 3,-6l2 -6 -17 -49c0,0 0,0 0,-1 0,-1 0,-2 1,-2 0,-1 1,-1 2,-1 2,0 3,0 4,2l14 40 14 -40c0,-1 2,-2 3,-2 1,0 2,0 3,1 0,0 1,1 1,2z"/>
  <path id="9" class="fil2" d="M658 128c0,2 -1,3 -4,3l-4 0c-10,0 -15,-5 -15,-15l0 -33 -8 0c-3,0 -4,-1 -4,-4 0,-2 1,-3 4,-3l8 0 0 -17c0,-2 1,-4 3,-4 3,0 4,2 4,4l0 17 10 0c2,0 4,1 4,3 0,3 -2,4 -4,4l-10 0 0 33c0,3 1,5 2,7 1,1 3,1 6,1l4 0c3,0 4,1 4,4z"/>
  <path id="10" class="fil2" d="M720 114c0,0 -1,2 -2,4 -5,9 -13,13 -23,13 -7,0 -14,-2 -19,-8 -4,-5 -6,-13 -6,-22 0,-8 2,-16 6,-21 5,-6 12,-9 19,-9 8,0 14,2 18,8 4,4 6,10 6,15 0,6 -2,9 -8,9l-34 0c0,6 2,12 5,16 4,3 8,5 13,5 8,0 14,-4 18,-12 1,-1 2,-2 3,-2 1,0 2,1 3,1 0,1 1,2 1,3zm-8 -20c0,-4 -1,-7 -4,-11 -3,-3 -8,-5 -13,-5 -5,0 -9,2 -12,5 -3,3 -5,7 -6,12l32 0c2,0 3,0 3,-1z"/>
  <path id="11" class="fil2" d="M763 74c0,2 -1,4 -3,4 -5,0 -9,2 -13,7 -4,4 -6,10 -6,16l0 27c0,2 -1,3 -4,3 -2,0 -3,-1 -3,-3l0 -54c0,-2 1,-3 3,-3 3,0 4,1 4,3l0 8c6,-8 12,-11 19,-11 2,0 3,1 3,3z"/>
  <path id="12" class="fil3 str0" d="M122 128c0,2 -1,3 -3,3 -3,0 -4,-1 -4,-3l0 -33 -41 0 0 33c0,2 -1,3 -3,3 -3,0 -4,-1 -4,-3l0 -69c0,-2 1,-4 4,-4 2,0 3,2 3,4l0 29 41 0 0 -29c0,-2 1,-4 4,-4 2,0 3,2 3,4l0 69z"/>
  <path id="13" class="fil3 str0" d="M182 128c0,2 -2,3 -4,3 -2,0 -3,-1 -3,-3l0 -5c-4,6 -9,8 -16,8 -6,0 -11,-1 -14,-5 -4,-4 -6,-10 -6,-18l0 -34c0,-2 1,-3 3,-3 3,0 4,1 4,3l0 34c0,11 5,16 13,16 4,0 8,-1 11,-4 3,-3 5,-8 5,-14l0 -32c0,-2 1,-3 3,-3 2,0 4,1 4,3l0 54z"/>
  <path id="14" class="fil3 str0" d="M240 128c0,2 -1,3 -3,3 -2,0 -4,-1 -4,-3l0 -34c0,-11 -4,-16 -13,-16 -5,0 -9,2 -12,6 -3,4 -4,8 -4,11l0 33c0,2 -1,3 -4,3 -2,0 -4,-1 -4,-3l0 -54c0,-2 2,-3 4,-3 3,0 4,1 4,3l0 6c3,-6 9,-9 16,-9 7,0 12,2 16,6 3,4 4,10 4,17l0 34z"/>
  <path id="15" class="fil3 str0" d="M493 128c0,2 -2,3 -4,3 -2,0 -4,-1 -4,-3l0 -33 -40 0 0 33c0,2 -1,3 -4,3 -2,0 -4,-1 -4,-3l0 -69c0,-2 2,-4 4,-4 3,0 4,2 4,4l0 29 40 0 0 -29c0,-2 2,-4 4,-4 2,0 4,2 4,4l0 69z"/>
  <path id="16" class="fil3 str0" d="M552 128c0,2 -1,3 -3,3 -3,0 -4,-1 -4,-3l0 -5c-4,6 -9,8 -15,8 -7,0 -11,-1 -15,-5 -4,-4 -6,-10 -6,-18l0 -34c0,-2 2,-3 4,-3 2,0 4,1 4,3l0 34c0,11 4,16 13,16 4,0 7,-1 10,-4 3,-3 5,-8 5,-14l0 -32c0,-2 1,-3 3,-3 3,0 4,1 4,3l0 54z"/>
  <path id="17" class="fil3 str0" d="M611 128c0,2 -1,3 -3,3 -3,0 -4,-1 -4,-3l0 -34c0,-11 -5,-16 -14,-16 -4,0 -8,2 -11,6 -3,4 -5,8 -5,11l0 33c0,2 -1,3 -3,3 -3,0 -4,-1 -4,-3l0 -54c0,-2 1,-3 4,-3 2,0 3,1 3,3l0 6c4,-6 9,-9 16,-9 7,0 13,2 16,6 3,4 5,10 5,17l0 34z"/>
  <path id="18" class="fil3 str1" d="M299 122c0,7 -2,12 -6,16 -3,5 -9,7 -16,7 -7,0 -12,-2 -17,-5 -2,-2 -4,-4 -4,-6 0,-1 1,-1 1,-2 1,-1 2,-1 3,-1 1,0 2,1 3,1 4,4 8,6 14,6 5,0 8,-2 11,-5 2,-2 4,-6 4,-11l0 -5c-2,3 -4,5 -7,6 -3,2 -6,3 -9,3 -6,0 -11,-2 -15,-7 -5,-5 -7,-12 -7,-21 0,-8 2,-15 6,-20 4,-5 10,-7 16,-7 3,0 6,1 9,2 3,2 5,4 7,7l0 -6c0,-2 1,-3 3,-3 3,0 4,1 4,3l0 48zm-7 -22c0,-7 -2,-13 -5,-17 -3,-3 -6,-5 -11,-5 -4,0 -7,1 -10,5 -3,3 -5,8 -5,15 0,7 2,12 5,16 3,3 6,5 10,5 4,0 7,-2 11,-5 3,-4 5,-8 5,-14z"/>
  <path id="19" class="fil3 str1" d="M343 74c0,2 -1,4 -3,4 -5,0 -9,2 -13,7 -4,4 -6,10 -6,16l0 27c0,2 -1,3 -4,3 -2,0 -3,-1 -3,-3l0 -54c0,-2 1,-3 3,-3 3,0 4,1 4,3l0 8c6,-8 12,-11 19,-11 2,0 3,1 3,3z"/>
  <path id="20" class="fil3 str1" d="M397 74c0,1 0,1 0,1l-20 58c-2,4 -4,7 -6,9 -2,2 -5,3 -9,3l-7 0c-2,0 -3,-1 -3,-4 0,-2 1,-3 3,-3l7 0c2,0 4,-1 5,-2 1,-1 2,-3 3,-6l2 -6 -17 -49c0,0 0,0 0,-1 0,-1 0,-2 1,-2 0,-1 1,-1 2,-1 2,0 3,0 4,2l14 40 14 -40c0,-1 2,-2 3,-2 1,0 2,0 3,1 0,0 1,1 1,2z"/>
  <path id="21" class="fil3 str1" d="M658 128c0,2 -1,3 -4,3l-4 0c-10,0 -15,-5 -15,-15l0 -33 -8 0c-3,0 -4,-1 -4,-4 0,-2 1,-3 4,-3l8 0 0 -17c0,-2 1,-4 3,-4 3,0 4,2 4,4l0 17 10 0c2,0 4,1 4,3 0,3 -2,4 -4,4l-10 0 0 33c0,3 1,5 2,7 1,1 3,1 6,1l4 0c3,0 4,1 4,4z"/>
  <path id="22" class="fil3 str1" d="M720 114c0,0 -1,2 -2,4 -5,9 -13,13 -23,13 -7,0 -14,-2 -19,-8 -4,-5 -6,-13 -6,-22 0,-8 2,-16 6,-21 5,-6 12,-9 19,-9 8,0 14,2 18,8 4,4 6,10 6,15 0,6 -2,9 -8,9l-34 0c0,6 2,12 5,16 4,3 8,5 13,5 8,0 14,-4 18,-12 1,-1 2,-2 3,-2 1,0 2,1 3,1 0,1 1,2 1,3zm-8 -20c0,-4 -1,-7 -4,-11 -3,-3 -8,-5 -13,-5 -5,0 -9,2 -12,5 -3,3 -5,7 -6,12l32 0c2,0 3,0 3,-1z"/>
  <path id="23" class="fil3 str1" d="M763 74c0,2 -1,4 -3,4 -5,0 -9,2 -13,7 -4,4 -6,10 -6,16l0 27c0,2 -1,3 -4,3 -2,0 -3,-1 -3,-3l0 -54c0,-2 1,-3 3,-3 3,0 4,1 4,3l0 8c6,-8 12,-11 19,-11 2,0 3,1 3,3z"/>
 </g>
</svg>
