<svg width="96" height="96" xmlns="http://www.w3.org/2000/svg" xmlns:xlink="http://www.w3.org/1999/xlink" xml:space="preserve" overflow="hidden"><defs><clipPath id="clip0"><rect x="592" y="312" width="96" height="96"/></clipPath></defs><g clip-path="url(#clip0)" transform="translate(-592 -312)"><path d="M653.756 332.309C652.995 333.08 651.957 333.515 650.873 333.516 647.614 333.457 642.573 331.454 639.847 329.498 638.504 328.528 636.628 328.83 635.658 330.173 634.688 331.516 634.99 333.392 636.333 334.362 637.933 335.493 639.619 336.499 641.375 337.37 630.493 339.658 620.53 345.11 612.736 353.041 601 364.778 595.346 379.908 596.214 393.606 609.914 394.474 625.041 388.82 636.778 377.083 644.709 369.289 650.161 359.327 652.45 348.445 653.321 350.201 654.326 351.886 655.457 353.486 656.428 354.828 658.303 355.13 659.646 354.159 659.681 354.133 659.716 354.107 659.75 354.08 661.001 353.016 661.211 351.164 660.231 349.847 658.198 346.908 656.794 343.581 656.107 340.074 655.909 338.564 656.4 337.045 657.444 335.937 658.713 334.575 660.137 333.367 661.688 332.337 663.925 331.023 666.591 330.647 669.105 331.289 669.599 331.402 670.084 331.551 670.557 331.734 668.404 333.177 666.692 335.186 665.607 337.54 663.707 341.702 664.056 346.498 666.482 349.474 667.735 351.078 669.657 352.017 671.693 352.019 672.247 352.018 672.799 351.954 673.338 351.829 676.355 351.111 678.831 348.965 679.972 346.081 681.559 342.046 681.412 337.536 679.566 333.613 680.367 333.503 681.173 333.437 681.981 333.413 683.183 333.393 684.212 332.547 684.464 331.372 684.719 330.015 683.825 328.708 682.468 328.454 682.292 328.421 682.113 328.407 681.934 328.412 679.978 328.458 678.034 328.732 676.142 329.228 674.41 327.855 672.388 326.894 670.23 326.418 666.381 325.464 662.309 326.095 658.93 328.171 657.083 329.39 655.351 330.775 653.756 332.309ZM615.973 381.624C613.825 383.772 610.343 383.772 608.195 381.624 606.047 379.476 606.047 375.994 608.195 373.846 610.343 371.698 613.825 371.698 615.973 373.846 615.973 373.846 615.973 373.846 615.973 373.846 618.117 375.995 618.117 379.475 615.973 381.624ZM628.034 370.978C625.496 373.517 621.38 373.517 618.842 370.978 616.303 368.44 616.303 364.324 618.841 361.786 621.38 359.247 625.495 359.247 628.034 361.786 628.034 361.786 628.034 361.786 628.034 361.786 630.567 364.326 630.567 368.438 628.034 370.978ZM638.64 358.957C636.492 361.105 633.01 361.105 630.862 358.957 628.714 356.809 628.714 353.327 630.862 351.179 633.01 349.031 636.492 349.031 638.64 351.179 638.64 351.179 638.64 351.179 638.64 351.179 640.784 353.328 640.784 356.808 638.64 358.957ZM675.38 344.1C674.869 345.52 673.682 346.59 672.218 346.953 671.524 347.16 670.776 346.903 670.357 346.312 669.317 345.038 668.914 342.328 670.157 339.617 671.102 337.625 672.703 336.018 674.692 335.065 676.251 337.825 676.503 341.136 675.38 344.1Z" fill="#4C7055"/></g></svg>