<svg width="715" height="715" xmlns="http://www.w3.org/2000/svg" xmlns:xlink="http://www.w3.org/1999/xlink" xml:space="preserve" overflow="hidden"><defs><clipPath id="clip0"><rect x="1759" y="456" width="715" height="715"/></clipPath></defs><g clip-path="url(#clip0)" transform="translate(-1759 -456)"><path d="M1759 813.5C1759 616.058 1919.06 456 2116.5 456 2313.94 456 2474 616.058 2474 813.5 2474 1010.94 2313.94 1171 2116.5 1171 1919.06 1171 1759 1010.94 1759 813.5ZM1794.99 813.5C1794.99 991.067 1938.93 1135.01 2116.5 1135.01 2294.07 1135.01 2438.01 991.067 2438.01 813.5 2438.01 635.933 2294.07 491.986 2116.5 491.986 1938.93 491.986 1794.99 635.933 1794.99 813.5Z" fill="#BFBFBF" fill-rule="evenodd"/></g></svg>