<svg xmlns="http://www.w3.org/2000/svg" viewBox="0 0 60 60"><defs><style>.cls-1{fill:#e1ffe3;}</style></defs><title>HxH資產 7</title><g id="圖層_2" data-name="圖層 2"><g id="圖層_4" data-name="圖層 4"><path class="cls-1" d="M50,0H10A10,10,0,0,0,0,10V50A10,10,0,0,0,10,60H50A10,10,0,0,0,60,50V10A10,10,0,0,0,50,0Zm2.5,34.17H34.58V50.83a3.75,3.75,0,0,1-3.75,3.75H29.58a3.76,3.76,0,0,1-3.75-3.75V34.17H9.17a4.17,4.17,0,1,1,0-8.34H25.83V9.17a3.76,3.76,0,0,1,3.75-3.75h1.25a3.75,3.75,0,0,1,3.75,3.75V25.83H52.5a4.17,4.17,0,0,1,0,8.34Z"/></g></g></svg>