<?xml version="1.0" encoding="UTF-8"?>
<!DOCTYPE svg PUBLIC "-//W3C//DTD SVG 1.1//EN" "http://www.w3.org/Graphics/SVG/1.1/DTD/svg11.dtd">
<!-- Creator: CorelDRAW X7 -->
<svg xmlns="http://www.w3.org/2000/svg" xml:space="preserve" width="4.6751mm" height="4.5194mm" version="1.1" shape-rendering="geometricPrecision" text-rendering="geometricPrecision" image-rendering="optimizeQuality" fill-rule="evenodd" clip-rule="evenodd"
viewBox="0 0 8 8"
 xmlns:xlink="http://www.w3.org/1999/xlink">
 <g id="圖層_x0020_1">
  <metadata id="CorelCorpID_0Corel-Layer"/>
  <g id="HxH主頁.svg">
   <g id="圖層_2" data-name="åå±¤ 2">
    <g id="圖層_5" data-name="åå±¤ 5">
     <path fill="#FEFEFE" d="M8 3l-3 -3c-1,0 -1,0 -1,0 0,0 0,0 0,0l-4 3c0,0 0,0 0,1l0 3c0,0 0,1 1,1l0 0 0 -3 0 0c0,0 0,0 0,0 0,0 1,-1 1,-1 1,0 1,1 1,1 0,0 0,0 0,0l0 0 0 3 4 0c0,0 0,0 0,0 0,0 1,-1 1,-1l0 -3c0,0 0,0 0,0 0,-1 0,-1 0,-1l0 0z"/>
    </g>
   </g>
  </g>
 </g>
</svg>
